<?xml version="1.0" encoding="UTF-8"?>
<svg xmlns="http://www.w3.org/2000/svg" width="1280" height="680" viewBox="0 0 1280 680">
  <rect width="100%" height="100%" fill="#ffffff"/>
  <text x="640" y="42" text-anchor="middle" font-size="26" font-weight="700" fill="#1c1c1c" font-family="Georgia, 'Times New Roman', Times, serif">Worst-page pixel-diff vs page count</text>
  <text x="640" y="68" text-anchor="middle" font-size="14" fill="#6b7280" font-family="ui-sans-serif, system-ui, -apple-system, 'Segoe UI', sans-serif">SOW fixture · 96 DPI — lower is better</text>
  <text x="46" y="349" text-anchor="middle" fill="#1c1c1c" font-size="13" font-family="ui-sans-serif, system-ui, -apple-system, 'Segoe UI', sans-serif" transform="rotate(-90 46 349)">percent</text>
  <text x="556" y="664" text-anchor="middle" font-size="14" font-weight="600" fill="#1c1c1c" font-family="ui-sans-serif, system-ui, -apple-system, 'Segoe UI', sans-serif">A4 pages dispatched</text>
  <rect x="1032" y="230" width="236" height="238" rx="16" fill="#f6f3ec" stroke="#e5dfd4"/><circle cx="1056" cy="258" r="7.5" fill="#12b76a"/><text x="1074" y="263" font-size="13.5" fill="#1c1c1c" font-family="ui-sans-serif, system-ui, -apple-system, 'Segoe UI', sans-serif">DOMinate</text><circle cx="1056" cy="288" r="7.5" fill="#e07a5f"/><text x="1074" y="293" font-size="13.5" fill="#1c1c1c" font-family="ui-sans-serif, system-ui, -apple-system, 'Segoe UI', sans-serif">html2canvas + jsPDF</text><line x1="1044" y1="318" x2="1068" y2="318" stroke="#c026d3" stroke-width="2.4" stroke-dasharray="8 4" stroke-linecap="round"/><circle cx="1056" cy="318" r="7.5" fill="#c026d3"/><text x="1074" y="323" font-size="13.5" fill="#1c1c1c" font-family="ui-sans-serif, system-ui, -apple-system, 'Segoe UI', sans-serif">html2pdf.js</text><line x1="1044" y1="348" x2="1068" y2="348" stroke="#f59e0b" stroke-width="2.4" stroke-dasharray="2 4" stroke-linecap="round"/><circle cx="1056" cy="348" r="7.5" fill="#f59e0b"/><text x="1074" y="353" font-size="13.5" fill="#1c1c1c" font-family="ui-sans-serif, system-ui, -apple-system, 'Segoe UI', sans-serif">html-to-image + jsPDF</text><circle cx="1056" cy="378" r="7.5" fill="#8b5cf6"/><text x="1074" y="383" font-size="13.5" fill="#1c1c1c" font-family="ui-sans-serif, system-ui, -apple-system, 'Segoe UI', sans-serif">jsPDF.html()</text><circle cx="1056" cy="408" r="7.5" fill="#2563eb"/><text x="1074" y="413" font-size="13.5" fill="#1c1c1c" font-family="ui-sans-serif, system-ui, -apple-system, 'Segoe UI', sans-serif">Playwright page.pdf</text><line x1="1044" y1="438" x2="1068" y2="438" stroke="#0ea5e9" stroke-width="2.4" stroke-dasharray="6 3" stroke-linecap="round"/><circle cx="1056" cy="438" r="7.5" fill="#0ea5e9"/><text x="1074" y="443" font-size="13.5" fill="#1c1c1c" font-family="ui-sans-serif, system-ui, -apple-system, 'Segoe UI', sans-serif">Puppeteer page.pdf</text>
  <line x1="108" y1="104" x2="108" y2="594" stroke="#1c1c1c" stroke-width="1.4"/><line x1="108" y1="594.0" x2="1004" y2="594.0" stroke="#1c1c1c" stroke-width="1.4"/><text x="96" y="598.0" text-anchor="end" font-size="12" fill="#6b7280" font-family="ui-sans-serif, system-ui, -apple-system, 'Segoe UI', sans-serif">0</text><line x1="108" y1="496.0" x2="1004" y2="496.0" stroke="#e8e4dc" stroke-width="1"/><text x="96" y="500.0" text-anchor="end" font-size="12" fill="#6b7280" font-family="ui-sans-serif, system-ui, -apple-system, 'Segoe UI', sans-serif">20</text><line x1="108" y1="398.0" x2="1004" y2="398.0" stroke="#e8e4dc" stroke-width="1"/><text x="96" y="402.0" text-anchor="end" font-size="12" fill="#6b7280" font-family="ui-sans-serif, system-ui, -apple-system, 'Segoe UI', sans-serif">40</text><line x1="108" y1="300.0" x2="1004" y2="300.0" stroke="#e8e4dc" stroke-width="1"/><text x="96" y="304.0" text-anchor="end" font-size="12" fill="#6b7280" font-family="ui-sans-serif, system-ui, -apple-system, 'Segoe UI', sans-serif">60</text><line x1="108" y1="202.0" x2="1004" y2="202.0" stroke="#e8e4dc" stroke-width="1"/><text x="96" y="206.0" text-anchor="end" font-size="12" fill="#6b7280" font-family="ui-sans-serif, system-ui, -apple-system, 'Segoe UI', sans-serif">80</text><line x1="108" y1="104.0" x2="1004" y2="104.0" stroke="#e8e4dc" stroke-width="1"/><text x="96" y="108.0" text-anchor="end" font-size="12" fill="#6b7280" font-family="ui-sans-serif, system-ui, -apple-system, 'Segoe UI', sans-serif">100</text><line x1="144.0" y1="104" x2="144.0" y2="594" stroke="#e8e4dc"/><text x="144.0" y="620" text-anchor="middle" font-size="13" fill="#1c1c1c" font-family="ui-sans-serif, system-ui, -apple-system, 'Segoe UI', sans-serif">1</text><line x1="418.7" y1="104" x2="418.7" y2="594" stroke="#e8e4dc"/><text x="418.7" y="620" text-anchor="middle" font-size="13" fill="#1c1c1c" font-family="ui-sans-serif, system-ui, -apple-system, 'Segoe UI', sans-serif">2</text><line x1="693.3" y1="104" x2="693.3" y2="594" stroke="#e8e4dc"/><text x="693.3" y="620" text-anchor="middle" font-size="13" fill="#1c1c1c" font-family="ui-sans-serif, system-ui, -apple-system, 'Segoe UI', sans-serif">3</text><line x1="968.0" y1="104" x2="968.0" y2="594" stroke="#e8e4dc"/><text x="968.0" y="620" text-anchor="middle" font-size="13" fill="#1c1c1c" font-family="ui-sans-serif, system-ui, -apple-system, 'Segoe UI', sans-serif">4</text>
  <path d="M 144.0 241.0 L 418.7 239.9 L 693.3 232.5 L 968.0 232.5" fill="none" stroke="#e07a5f" stroke-width="2.8" stroke-linejoin="round" stroke-linecap="round"/><circle cx="144.0" cy="241.0" r="6.5" fill="#e07a5f" stroke="#ffffff" stroke-width="2"/><circle cx="418.7" cy="239.9" r="6.5" fill="#e07a5f" stroke="#ffffff" stroke-width="2"/><circle cx="693.3" cy="232.5" r="6.5" fill="#e07a5f" stroke="#ffffff" stroke-width="2"/><circle cx="968.0" cy="232.5" r="6.5" fill="#e07a5f" stroke="#ffffff" stroke-width="2"/><path d="M 144.0 104.0 L 418.7 104.0 L 693.3 104.0 L 968.0 104.0" fill="none" stroke="#8b5cf6" stroke-width="2.8" stroke-linejoin="round" stroke-linecap="round"/><circle cx="144.0" cy="104.0" r="6.5" fill="#8b5cf6" stroke="#ffffff" stroke-width="2"/><circle cx="418.7" cy="104.0" r="6.5" fill="#8b5cf6" stroke="#ffffff" stroke-width="2"/><circle cx="693.3" cy="104.0" r="6.5" fill="#8b5cf6" stroke="#ffffff" stroke-width="2"/><circle cx="968.0" cy="104.0" r="6.5" fill="#8b5cf6" stroke="#ffffff" stroke-width="2"/><path d="M 144.0 586.3 L 418.7 583.8 L 693.3 583.8 L 968.0 583.8" fill="none" stroke="#2563eb" stroke-width="2.8" stroke-linejoin="round" stroke-linecap="round"/><circle cx="144.0" cy="586.3" r="6.5" fill="#2563eb" stroke="#ffffff" stroke-width="2"/><circle cx="418.7" cy="583.8" r="6.5" fill="#2563eb" stroke="#ffffff" stroke-width="2"/><circle cx="693.3" cy="583.8" r="6.5" fill="#2563eb" stroke="#ffffff" stroke-width="2"/><circle cx="968.0" cy="583.8" r="6.5" fill="#2563eb" stroke="#ffffff" stroke-width="2"/><path d="M 144.0 241.0 L 418.7 239.9 L 693.3 232.5 L 968.0 232.5" fill="none" stroke="#c026d3" stroke-width="2.8" stroke-linejoin="round" stroke-linecap="round" stroke-dasharray="8 4"/><circle cx="144.0" cy="241.0" r="6.5" fill="#c026d3" stroke="#ffffff" stroke-width="2"/><circle cx="418.7" cy="239.9" r="6.5" fill="#c026d3" stroke="#ffffff" stroke-width="2"/><circle cx="693.3" cy="232.5" r="6.5" fill="#c026d3" stroke="#ffffff" stroke-width="2"/><circle cx="968.0" cy="232.5" r="6.5" fill="#c026d3" stroke="#ffffff" stroke-width="2"/><path d="M 144.0 240.9 L 418.7 239.2 L 693.3 232.2 L 968.0 232.2" fill="none" stroke="#f59e0b" stroke-width="2.8" stroke-linejoin="round" stroke-linecap="round" stroke-dasharray="2 4"/><circle cx="144.0" cy="240.9" r="6.5" fill="#f59e0b" stroke="#ffffff" stroke-width="2"/><circle cx="418.7" cy="239.2" r="6.5" fill="#f59e0b" stroke="#ffffff" stroke-width="2"/><circle cx="693.3" cy="232.2" r="6.5" fill="#f59e0b" stroke="#ffffff" stroke-width="2"/><circle cx="968.0" cy="232.2" r="6.5" fill="#f59e0b" stroke="#ffffff" stroke-width="2"/><path d="M 144.0 586.3 L 418.7 583.8 L 693.3 583.8 L 968.0 583.8" fill="none" stroke="#0ea5e9" stroke-width="2.8" stroke-linejoin="round" stroke-linecap="round" stroke-dasharray="6 3"/><circle cx="144.0" cy="586.3" r="6.5" fill="#0ea5e9" stroke="#ffffff" stroke-width="2"/><circle cx="418.7" cy="583.8" r="6.5" fill="#0ea5e9" stroke="#ffffff" stroke-width="2"/><circle cx="693.3" cy="583.8" r="6.5" fill="#0ea5e9" stroke="#ffffff" stroke-width="2"/><circle cx="968.0" cy="583.8" r="6.5" fill="#0ea5e9" stroke="#ffffff" stroke-width="2"/><path d="M 144.0 590.1 L 418.7 585.6 L 693.3 585.6 L 968.0 585.6" fill="none" stroke="#12b76a" stroke-width="2.8" stroke-linejoin="round" stroke-linecap="round"/><circle cx="144.0" cy="590.1" r="6.5" fill="#12b76a" stroke="#ffffff" stroke-width="2"/><circle cx="418.7" cy="585.6" r="6.5" fill="#12b76a" stroke="#ffffff" stroke-width="2"/><circle cx="693.3" cy="585.6" r="6.5" fill="#12b76a" stroke="#ffffff" stroke-width="2"/><circle cx="968.0" cy="585.6" r="6.5" fill="#12b76a" stroke="#ffffff" stroke-width="2"/>
</svg>
