<?xml version="1.0" encoding="UTF-8"?>
<svg xmlns="http://www.w3.org/2000/svg" width="1280" height="680" viewBox="0 0 1280 680">
  <rect width="100%" height="100%" fill="#ffffff"/>
  <text x="640" y="42" text-anchor="middle" font-size="26" font-weight="700" fill="#1c1c1c" font-family="Georgia, 'Times New Roman', Times, serif">Worst-page pixel-diff vs HTML</text>
  <text x="640" y="68" text-anchor="middle" font-size="14" fill="#6b7280" font-family="ui-sans-serif, system-ui, -apple-system, 'Segoe UI', sans-serif">96 DPI · pixelmatch 0.1 — lower is better</text>
  <text x="46" y="353" text-anchor="middle" fill="#1c1c1c" font-size="13" font-family="ui-sans-serif, system-ui, -apple-system, 'Segoe UI', sans-serif" transform="rotate(-90 46 353)">percent</text>
  
  <rect x="1032" y="234" width="236" height="238" rx="16" fill="#f6f3ec" stroke="#e5dfd4"/><circle cx="1056" cy="262" r="7.5" fill="#12b76a"/><text x="1074" y="267" font-size="13.5" fill="#1c1c1c" font-family="ui-sans-serif, system-ui, -apple-system, 'Segoe UI', sans-serif">DOMinate</text><circle cx="1056" cy="292" r="7.5" fill="#e07a5f"/><text x="1074" y="297" font-size="13.5" fill="#1c1c1c" font-family="ui-sans-serif, system-ui, -apple-system, 'Segoe UI', sans-serif">html2canvas + jsPDF</text><line x1="1044" y1="322" x2="1068" y2="322" stroke="#c026d3" stroke-width="2.4" stroke-dasharray="8 4" stroke-linecap="round"/><circle cx="1056" cy="322" r="7.5" fill="#c026d3"/><text x="1074" y="327" font-size="13.5" fill="#1c1c1c" font-family="ui-sans-serif, system-ui, -apple-system, 'Segoe UI', sans-serif">html2pdf.js</text><line x1="1044" y1="352" x2="1068" y2="352" stroke="#f59e0b" stroke-width="2.4" stroke-dasharray="2 4" stroke-linecap="round"/><circle cx="1056" cy="352" r="7.5" fill="#f59e0b"/><text x="1074" y="357" font-size="13.5" fill="#1c1c1c" font-family="ui-sans-serif, system-ui, -apple-system, 'Segoe UI', sans-serif">html-to-image + jsPDF</text><circle cx="1056" cy="382" r="7.5" fill="#8b5cf6"/><text x="1074" y="387" font-size="13.5" fill="#1c1c1c" font-family="ui-sans-serif, system-ui, -apple-system, 'Segoe UI', sans-serif">jsPDF.html()</text><circle cx="1056" cy="412" r="7.5" fill="#2563eb"/><text x="1074" y="417" font-size="13.5" fill="#1c1c1c" font-family="ui-sans-serif, system-ui, -apple-system, 'Segoe UI', sans-serif">Playwright page.pdf</text><line x1="1044" y1="442" x2="1068" y2="442" stroke="#0ea5e9" stroke-width="2.4" stroke-dasharray="6 3" stroke-linecap="round"/><circle cx="1056" cy="442" r="7.5" fill="#0ea5e9"/><text x="1074" y="447" font-size="13.5" fill="#1c1c1c" font-family="ui-sans-serif, system-ui, -apple-system, 'Segoe UI', sans-serif">Puppeteer page.pdf</text>
  <line x1="108" y1="104" x2="108" y2="602" stroke="#1c1c1c" stroke-width="1.4"/><line x1="108" y1="602.0" x2="1004" y2="602.0" stroke="#1c1c1c" stroke-width="1.4"/><text x="96" y="606.0" text-anchor="end" font-size="12" fill="#6b7280" font-family="ui-sans-serif, system-ui, -apple-system, 'Segoe UI', sans-serif">0</text><line x1="108" y1="502.4" x2="1004" y2="502.4" stroke="#e8e4dc" stroke-width="1"/><text x="96" y="506.4" text-anchor="end" font-size="12" fill="#6b7280" font-family="ui-sans-serif, system-ui, -apple-system, 'Segoe UI', sans-serif">20</text><line x1="108" y1="402.8" x2="1004" y2="402.8" stroke="#e8e4dc" stroke-width="1"/><text x="96" y="406.8" text-anchor="end" font-size="12" fill="#6b7280" font-family="ui-sans-serif, system-ui, -apple-system, 'Segoe UI', sans-serif">40</text><line x1="108" y1="303.2" x2="1004" y2="303.2" stroke="#e8e4dc" stroke-width="1"/><text x="96" y="307.2" text-anchor="end" font-size="12" fill="#6b7280" font-family="ui-sans-serif, system-ui, -apple-system, 'Segoe UI', sans-serif">60</text><line x1="108" y1="203.6" x2="1004" y2="203.6" stroke="#e8e4dc" stroke-width="1"/><text x="96" y="207.6" text-anchor="end" font-size="12" fill="#6b7280" font-family="ui-sans-serif, system-ui, -apple-system, 'Segoe UI', sans-serif">80</text><line x1="108" y1="104.0" x2="1004" y2="104.0" stroke="#e8e4dc" stroke-width="1"/><text x="96" y="108.0" text-anchor="end" font-size="12" fill="#6b7280" font-family="ui-sans-serif, system-ui, -apple-system, 'Segoe UI', sans-serif">100</text><rect x="111.8" y="595.8" width="34.7" height="6.2" fill="#12b76a" rx="3"/><text x="129.1" y="588.8" text-anchor="middle" font-size="9" font-weight="600" fill="#1c1c1c" font-family="ui-sans-serif, system-ui, -apple-system, 'Segoe UI', sans-serif">1.24</text><rect x="154.5" y="201.5" width="34.7" height="400.5" fill="#e07a5f" rx="3"/><text x="171.9" y="194.5" text-anchor="middle" font-size="9" font-weight="600" fill="#1c1c1c" font-family="ui-sans-serif, system-ui, -apple-system, 'Segoe UI', sans-serif">80.42</text><rect x="197.2" y="184.2" width="34.7" height="417.8" fill="#c026d3" rx="3"/><text x="214.6" y="177.2" text-anchor="middle" font-size="9" font-weight="600" fill="#1c1c1c" font-family="ui-sans-serif, system-ui, -apple-system, 'Segoe UI', sans-serif">83.89</text><rect x="240.0" y="184.3" width="34.7" height="417.7" fill="#f59e0b" rx="3"/><text x="257.3" y="177.3" text-anchor="middle" font-size="9" font-weight="600" fill="#1c1c1c" font-family="ui-sans-serif, system-ui, -apple-system, 'Segoe UI', sans-serif">83.87</text><rect x="282.7" y="104.0" width="34.7" height="498.0" fill="#8b5cf6" rx="3"/><text x="300.1" y="97.0" text-anchor="middle" font-size="9" font-weight="600" fill="#1c1c1c" font-family="ui-sans-serif, system-ui, -apple-system, 'Segoe UI', sans-serif">100.00</text><rect x="325.4" y="296.8" width="34.7" height="305.2" fill="#2563eb" rx="3"/><text x="342.8" y="289.8" text-anchor="middle" font-size="9" font-weight="600" fill="#1c1c1c" font-family="ui-sans-serif, system-ui, -apple-system, 'Segoe UI', sans-serif">61.28</text><rect x="368.2" y="296.8" width="34.7" height="305.2" fill="#0ea5e9" rx="3"/><text x="385.5" y="289.8" text-anchor="middle" font-size="9" font-weight="600" fill="#1c1c1c" font-family="ui-sans-serif, system-ui, -apple-system, 'Segoe UI', sans-serif">61.28</text><text x="257.3" y="630" text-anchor="middle" font-size="13.5" fill="#1c1c1c" font-family="ui-sans-serif, system-ui, -apple-system, 'Segoe UI', sans-serif">Landing</text><rect x="410.4" y="599.8" width="34.7" height="2.2" fill="#12b76a" rx="3"/><text x="427.8" y="592.8" text-anchor="middle" font-size="9" font-weight="600" fill="#1c1c1c" font-family="ui-sans-serif, system-ui, -apple-system, 'Segoe UI', sans-serif">0.43</text><rect x="453.2" y="259.7" width="34.7" height="342.3" fill="#e07a5f" rx="3"/><text x="470.5" y="252.7" text-anchor="middle" font-size="9" font-weight="600" fill="#1c1c1c" font-family="ui-sans-serif, system-ui, -apple-system, 'Segoe UI', sans-serif">68.73</text><rect x="495.9" y="259.7" width="34.7" height="342.3" fill="#c026d3" rx="3"/><text x="513.3" y="252.7" text-anchor="middle" font-size="9" font-weight="600" fill="#1c1c1c" font-family="ui-sans-serif, system-ui, -apple-system, 'Segoe UI', sans-serif">68.74</text><rect x="538.6" y="260.7" width="34.7" height="341.3" fill="#f59e0b" rx="3"/><text x="556.0" y="253.7" text-anchor="middle" font-size="9" font-weight="600" fill="#1c1c1c" font-family="ui-sans-serif, system-ui, -apple-system, 'Segoe UI', sans-serif">68.54</text><rect x="581.4" y="258.5" width="34.7" height="343.5" fill="#8b5cf6" rx="3"/><text x="598.7" y="251.5" text-anchor="middle" font-size="9" font-weight="600" fill="#1c1c1c" font-family="ui-sans-serif, system-ui, -apple-system, 'Segoe UI', sans-serif">68.98</text><rect x="624.1" y="598.4" width="34.7" height="3.6" fill="#2563eb" rx="3"/><text x="641.5" y="591.4" text-anchor="middle" font-size="9" font-weight="600" fill="#1c1c1c" font-family="ui-sans-serif, system-ui, -apple-system, 'Segoe UI', sans-serif">0.73</text><rect x="666.8" y="598.4" width="34.7" height="3.6" fill="#0ea5e9" rx="3"/><text x="684.2" y="591.4" text-anchor="middle" font-size="9" font-weight="600" fill="#1c1c1c" font-family="ui-sans-serif, system-ui, -apple-system, 'Segoe UI', sans-serif">0.73</text><text x="556.0" y="630" text-anchor="middle" font-size="13.5" fill="#1c1c1c" font-family="ui-sans-serif, system-ui, -apple-system, 'Segoe UI', sans-serif">Invoice (1 page)</text><rect x="709.1" y="593.5" width="34.7" height="8.5" fill="#12b76a" rx="3"/><text x="726.5" y="586.5" text-anchor="middle" font-size="9" font-weight="600" fill="#1c1c1c" font-family="ui-sans-serif, system-ui, -apple-system, 'Segoe UI', sans-serif">1.71</text><rect x="751.8" y="234.6" width="34.7" height="367.4" fill="#e07a5f" rx="3"/><text x="769.2" y="227.6" text-anchor="middle" font-size="9" font-weight="600" fill="#1c1c1c" font-family="ui-sans-serif, system-ui, -apple-system, 'Segoe UI', sans-serif">73.78</text><rect x="794.6" y="234.6" width="34.7" height="367.4" fill="#c026d3" rx="3"/><text x="811.9" y="227.6" text-anchor="middle" font-size="9" font-weight="600" fill="#1c1c1c" font-family="ui-sans-serif, system-ui, -apple-system, 'Segoe UI', sans-serif">73.78</text><rect x="837.3" y="234.3" width="34.7" height="367.7" fill="#f59e0b" rx="3"/><text x="854.7" y="227.3" text-anchor="middle" font-size="9" font-weight="600" fill="#1c1c1c" font-family="ui-sans-serif, system-ui, -apple-system, 'Segoe UI', sans-serif">73.84</text><rect x="880.0" y="104.0" width="34.7" height="498.0" fill="#8b5cf6" rx="3"/><text x="897.4" y="97.0" text-anchor="middle" font-size="9" font-weight="600" fill="#1c1c1c" font-family="ui-sans-serif, system-ui, -apple-system, 'Segoe UI', sans-serif">100.00</text><rect x="922.8" y="591.7" width="34.7" height="10.3" fill="#2563eb" rx="3"/><text x="940.1" y="584.7" text-anchor="middle" font-size="9" font-weight="600" fill="#1c1c1c" font-family="ui-sans-serif, system-ui, -apple-system, 'Segoe UI', sans-serif">2.08</text><rect x="965.5" y="591.7" width="34.7" height="10.3" fill="#0ea5e9" rx="3"/><text x="982.9" y="584.7" text-anchor="middle" font-size="9" font-weight="600" fill="#1c1c1c" font-family="ui-sans-serif, system-ui, -apple-system, 'Segoe UI', sans-serif">2.08</text><text x="854.7" y="630" text-anchor="middle" font-size="13.5" fill="#1c1c1c" font-family="ui-sans-serif, system-ui, -apple-system, 'Segoe UI', sans-serif">SOW (4 pages)</text>
</svg>
