<?xml version="1.0" encoding="UTF-8"?>
<svg xmlns="http://www.w3.org/2000/svg" width="1280" height="680" viewBox="0 0 1280 680">
  <rect width="100%" height="100%" fill="#ffffff"/>
  <text x="640" y="42" text-anchor="middle" font-size="26" font-weight="700" fill="#1c1c1c" font-family="Georgia, 'Times New Roman', Times, serif">Warm convert time</text>
  <text x="640" y="68" text-anchor="middle" font-size="14" fill="#6b7280" font-family="ui-sans-serif, system-ui, -apple-system, 'Segoe UI', sans-serif">Median of 5 warm calls — lower is better</text>
  <text x="46" y="353" text-anchor="middle" fill="#1c1c1c" font-size="13" font-family="ui-sans-serif, system-ui, -apple-system, 'Segoe UI', sans-serif" transform="rotate(-90 46 353)">milliseconds</text>
  
  <rect x="1032" y="234" width="236" height="238" rx="16" fill="#f6f3ec" stroke="#e5dfd4"/><circle cx="1056" cy="262" r="7.5" fill="#12b76a"/><text x="1074" y="267" font-size="13.5" fill="#1c1c1c" font-family="ui-sans-serif, system-ui, -apple-system, 'Segoe UI', sans-serif">DOMinate</text><circle cx="1056" cy="292" r="7.5" fill="#e07a5f"/><text x="1074" y="297" font-size="13.5" fill="#1c1c1c" font-family="ui-sans-serif, system-ui, -apple-system, 'Segoe UI', sans-serif">html2canvas + jsPDF</text><line x1="1044" y1="322" x2="1068" y2="322" stroke="#c026d3" stroke-width="2.4" stroke-dasharray="8 4" stroke-linecap="round"/><circle cx="1056" cy="322" r="7.5" fill="#c026d3"/><text x="1074" y="327" font-size="13.5" fill="#1c1c1c" font-family="ui-sans-serif, system-ui, -apple-system, 'Segoe UI', sans-serif">html2pdf.js</text><line x1="1044" y1="352" x2="1068" y2="352" stroke="#f59e0b" stroke-width="2.4" stroke-dasharray="2 4" stroke-linecap="round"/><circle cx="1056" cy="352" r="7.5" fill="#f59e0b"/><text x="1074" y="357" font-size="13.5" fill="#1c1c1c" font-family="ui-sans-serif, system-ui, -apple-system, 'Segoe UI', sans-serif">html-to-image + jsPDF</text><circle cx="1056" cy="382" r="7.5" fill="#8b5cf6"/><text x="1074" y="387" font-size="13.5" fill="#1c1c1c" font-family="ui-sans-serif, system-ui, -apple-system, 'Segoe UI', sans-serif">jsPDF.html()</text><circle cx="1056" cy="412" r="7.5" fill="#2563eb"/><text x="1074" y="417" font-size="13.5" fill="#1c1c1c" font-family="ui-sans-serif, system-ui, -apple-system, 'Segoe UI', sans-serif">Playwright page.pdf</text><line x1="1044" y1="442" x2="1068" y2="442" stroke="#0ea5e9" stroke-width="2.4" stroke-dasharray="6 3" stroke-linecap="round"/><circle cx="1056" cy="442" r="7.5" fill="#0ea5e9"/><text x="1074" y="447" font-size="13.5" fill="#1c1c1c" font-family="ui-sans-serif, system-ui, -apple-system, 'Segoe UI', sans-serif">Puppeteer page.pdf</text>
  <line x1="108" y1="104" x2="108" y2="602" stroke="#1c1c1c" stroke-width="1.4"/><line x1="108" y1="602.0" x2="1004" y2="602.0" stroke="#1c1c1c" stroke-width="1.4"/><text x="96" y="606.0" text-anchor="end" font-size="12" fill="#6b7280" font-family="ui-sans-serif, system-ui, -apple-system, 'Segoe UI', sans-serif">0</text><line x1="108" y1="502.4" x2="1004" y2="502.4" stroke="#e8e4dc" stroke-width="1"/><text x="96" y="506.4" text-anchor="end" font-size="12" fill="#6b7280" font-family="ui-sans-serif, system-ui, -apple-system, 'Segoe UI', sans-serif">60</text><line x1="108" y1="402.8" x2="1004" y2="402.8" stroke="#e8e4dc" stroke-width="1"/><text x="96" y="406.8" text-anchor="end" font-size="12" fill="#6b7280" font-family="ui-sans-serif, system-ui, -apple-system, 'Segoe UI', sans-serif">120</text><line x1="108" y1="303.2" x2="1004" y2="303.2" stroke="#e8e4dc" stroke-width="1"/><text x="96" y="307.2" text-anchor="end" font-size="12" fill="#6b7280" font-family="ui-sans-serif, system-ui, -apple-system, 'Segoe UI', sans-serif">180</text><line x1="108" y1="203.6" x2="1004" y2="203.6" stroke="#e8e4dc" stroke-width="1"/><text x="96" y="207.6" text-anchor="end" font-size="12" fill="#6b7280" font-family="ui-sans-serif, system-ui, -apple-system, 'Segoe UI', sans-serif">240</text><line x1="108" y1="104.0" x2="1004" y2="104.0" stroke="#e8e4dc" stroke-width="1"/><text x="96" y="108.0" text-anchor="end" font-size="12" fill="#6b7280" font-family="ui-sans-serif, system-ui, -apple-system, 'Segoe UI', sans-serif">300</text><rect x="111.8" y="574.9" width="34.7" height="27.1" fill="#12b76a" rx="3"/><text x="129.1" y="567.9" text-anchor="middle" font-size="10" font-weight="600" fill="#1c1c1c" font-family="ui-sans-serif, system-ui, -apple-system, 'Segoe UI', sans-serif">16</text><rect x="154.5" y="448.8" width="34.7" height="153.2" fill="#e07a5f" rx="3"/><text x="171.9" y="441.8" text-anchor="middle" font-size="10" font-weight="600" fill="#1c1c1c" font-family="ui-sans-serif, system-ui, -apple-system, 'Segoe UI', sans-serif">92</text><rect x="197.2" y="419.2" width="34.7" height="182.8" fill="#c026d3" rx="3"/><text x="214.6" y="412.2" text-anchor="middle" font-size="10" font-weight="600" fill="#1c1c1c" font-family="ui-sans-serif, system-ui, -apple-system, 'Segoe UI', sans-serif">110</text><rect x="240.0" y="448.1" width="34.7" height="153.9" fill="#f59e0b" rx="3"/><text x="257.3" y="441.1" text-anchor="middle" font-size="10" font-weight="600" fill="#1c1c1c" font-family="ui-sans-serif, system-ui, -apple-system, 'Segoe UI', sans-serif">93</text><rect x="282.7" y="399.6" width="34.7" height="202.4" fill="#8b5cf6" rx="3"/><text x="300.1" y="392.6" text-anchor="middle" font-size="10" font-weight="600" fill="#1c1c1c" font-family="ui-sans-serif, system-ui, -apple-system, 'Segoe UI', sans-serif">122</text><rect x="325.4" y="552.2" width="34.7" height="49.8" fill="#2563eb" rx="3"/><text x="342.8" y="545.2" text-anchor="middle" font-size="10" font-weight="600" fill="#1c1c1c" font-family="ui-sans-serif, system-ui, -apple-system, 'Segoe UI', sans-serif">30</text><rect x="368.2" y="408.3" width="34.7" height="193.7" fill="#0ea5e9" rx="3"/><text x="385.5" y="401.3" text-anchor="middle" font-size="10" font-weight="600" fill="#1c1c1c" font-family="ui-sans-serif, system-ui, -apple-system, 'Segoe UI', sans-serif">117</text><text x="257.3" y="630" text-anchor="middle" font-size="13.5" fill="#1c1c1c" font-family="ui-sans-serif, system-ui, -apple-system, 'Segoe UI', sans-serif">Landing</text><rect x="410.4" y="551.2" width="34.7" height="50.8" fill="#12b76a" rx="3"/><text x="427.8" y="544.2" text-anchor="middle" font-size="10" font-weight="600" fill="#1c1c1c" font-family="ui-sans-serif, system-ui, -apple-system, 'Segoe UI', sans-serif">31</text><rect x="453.2" y="427.4" width="34.7" height="174.6" fill="#e07a5f" rx="3"/><text x="470.5" y="420.4" text-anchor="middle" font-size="10" font-weight="600" fill="#1c1c1c" font-family="ui-sans-serif, system-ui, -apple-system, 'Segoe UI', sans-serif">105</text><rect x="495.9" y="358.3" width="34.7" height="243.7" fill="#c026d3" rx="3"/><text x="513.3" y="351.3" text-anchor="middle" font-size="10" font-weight="600" fill="#1c1c1c" font-family="ui-sans-serif, system-ui, -apple-system, 'Segoe UI', sans-serif">147</text><rect x="538.6" y="307.0" width="34.7" height="295.0" fill="#f59e0b" rx="3"/><text x="556.0" y="300.0" text-anchor="middle" font-size="10" font-weight="600" fill="#1c1c1c" font-family="ui-sans-serif, system-ui, -apple-system, 'Segoe UI', sans-serif">178</text><rect x="581.4" y="360.8" width="34.7" height="241.2" fill="#8b5cf6" rx="3"/><text x="598.7" y="353.8" text-anchor="middle" font-size="10" font-weight="600" fill="#1c1c1c" font-family="ui-sans-serif, system-ui, -apple-system, 'Segoe UI', sans-serif">145</text><rect x="624.1" y="591.2" width="34.7" height="10.8" fill="#2563eb" rx="3"/><text x="641.5" y="584.2" text-anchor="middle" font-size="10" font-weight="600" fill="#1c1c1c" font-family="ui-sans-serif, system-ui, -apple-system, 'Segoe UI', sans-serif">7</text><rect x="666.8" y="325.4" width="34.7" height="276.6" fill="#0ea5e9" rx="3"/><text x="684.2" y="318.4" text-anchor="middle" font-size="10" font-weight="600" fill="#1c1c1c" font-family="ui-sans-serif, system-ui, -apple-system, 'Segoe UI', sans-serif">167</text><text x="556.0" y="630" text-anchor="middle" font-size="13.5" fill="#1c1c1c" font-family="ui-sans-serif, system-ui, -apple-system, 'Segoe UI', sans-serif">Invoice (1 page)</text><rect x="709.1" y="525.6" width="34.7" height="76.4" fill="#12b76a" rx="3"/><text x="726.5" y="518.6" text-anchor="middle" font-size="10" font-weight="600" fill="#1c1c1c" font-family="ui-sans-serif, system-ui, -apple-system, 'Segoe UI', sans-serif">46</text><rect x="751.8" y="372.8" width="34.7" height="229.2" fill="#e07a5f" rx="3"/><text x="769.2" y="365.8" text-anchor="middle" font-size="10" font-weight="600" fill="#1c1c1c" font-family="ui-sans-serif, system-ui, -apple-system, 'Segoe UI', sans-serif">138</text><rect x="794.6" y="328.1" width="34.7" height="273.9" fill="#c026d3" rx="3"/><text x="811.9" y="321.1" text-anchor="middle" font-size="10" font-weight="600" fill="#1c1c1c" font-family="ui-sans-serif, system-ui, -apple-system, 'Segoe UI', sans-serif">165</text><rect x="837.3" y="238.3" width="34.7" height="363.7" fill="#f59e0b" rx="3"/><text x="854.7" y="231.3" text-anchor="middle" font-size="10" font-weight="600" fill="#1c1c1c" font-family="ui-sans-serif, system-ui, -apple-system, 'Segoe UI', sans-serif">219</text><rect x="880.0" y="295.2" width="34.7" height="306.8" fill="#8b5cf6" rx="3"/><text x="897.4" y="288.2" text-anchor="middle" font-size="10" font-weight="600" fill="#1c1c1c" font-family="ui-sans-serif, system-ui, -apple-system, 'Segoe UI', sans-serif">185</text><rect x="922.8" y="585.6" width="34.7" height="16.4" fill="#2563eb" rx="3"/><text x="940.1" y="578.6" text-anchor="middle" font-size="10" font-weight="600" fill="#1c1c1c" font-family="ui-sans-serif, system-ui, -apple-system, 'Segoe UI', sans-serif">10</text><rect x="965.5" y="177.5" width="34.7" height="424.5" fill="#0ea5e9" rx="3"/><text x="982.9" y="170.5" text-anchor="middle" font-size="10" font-weight="600" fill="#1c1c1c" font-family="ui-sans-serif, system-ui, -apple-system, 'Segoe UI', sans-serif">256</text><text x="854.7" y="630" text-anchor="middle" font-size="13.5" fill="#1c1c1c" font-family="ui-sans-serif, system-ui, -apple-system, 'Segoe UI', sans-serif">SOW (4 pages)</text>
</svg>
